<svg xmlns="http://www.w3.org/2000/svg" width="639" height="138" fill="none"><path fill="#000" d="M176.893 111c-4.067 0-7.867-.967-11.4-2.9-3.467-1.933-6.267-4.7-8.4-8.3-2.134-3.6-3.2-7.9-3.2-12.9 0-4.8.9-9 2.7-12.6 1.866-3.6 4.466-6.4 7.8-8.4 3.4-2 7.433-3 12.1-3 2.8 0 5.333.5 7.6 1.5 2.333.933 4.266 2.1 5.8 3.5 1.6 1.333 2.666 2.633 3.2 3.9l.2-7.7h10.3V110h-10.2l-.2-8.1c-.667 1.467-1.8 2.9-3.4 4.3-1.534 1.4-3.4 2.567-5.6 3.5-2.2.867-4.634 1.3-7.3 1.3Zm1.8-9c2.466 0 4.7-.567 6.7-1.7 2.066-1.2 3.7-2.867 4.9-5 1.266-2.133 1.9-4.667 1.9-7.6V87c0-3-.634-5.6-1.9-7.8-1.2-2.267-2.834-4-4.9-5.2-2-1.267-4.234-1.9-6.7-1.9-4.467 0-7.834 1.433-10.1 4.3-2.2 2.867-3.3 6.4-3.3 10.6 0 4.267 1.1 7.833 3.3 10.7 2.266 2.867 5.633 4.3 10.1 4.3Zm37.756 8V64.1h10.8v9c1.067-3 2.767-5.433 5.1-7.3 2.4-1.933 5.167-2.9 8.3-2.9 2.133 0 3.6.2 4.4.6l-1.5 10.9c-.6-.4-1.9-.6-3.9-.6-1.667 0-3.467.367-5.4 1.1-1.933.733-3.6 2.033-5 3.9-1.333 1.8-2 4.333-2 7.6V110h-10.8Zm40.237 0V72.9h-8.1v-8.8h8.1V45.4l10.9-2.4v21.1h10.6v8.8h-10.6V110h-10.9Zm30.882 0V64.1h11.2V110h-11.2Zm5.6-54.5c-2.066 0-3.8-.7-5.2-2.1-1.333-1.4-2-3.133-2-5.2 0-1.867.667-3.467 2-4.8 1.4-1.333 3.134-2 5.2-2 2.067 0 3.767.667 5.1 2 1.4 1.333 2.1 2.933 2.1 4.8 0 2.067-.7 3.8-2.1 5.2-1.333 1.4-3.033 2.1-5.1 2.1ZM329.45 110l-24.2-45.9h12.3l9.9 20.7 3.2 8.3 3.2-8.3 9.8-20.7h12l-24.1 45.9h-2.1Zm52.847 1c-5.734 0-10.4-1.1-14-3.3-3.6-2.267-6.234-5.233-7.9-8.9-1.667-3.667-2.5-7.567-2.5-11.7 0-5 1-9.3 3-12.9 2.066-3.6 4.9-6.367 8.5-8.3 3.6-2 7.666-3 12.2-3 7.266 0 12.566 2.033 15.9 6.1 3.333 4 5 9.4 5 16.2 0 1.8-.1 3.667-.3 5.6h-33c.733 4.133 2.2 7.1 4.4 8.9 2.266 1.733 5.266 2.6 9 2.6 3.6 0 6.433-.333 8.5-1 2.066-.667 3.766-1.333 5.1-2l3.3 7.7c-1.334.867-3.4 1.767-6.2 2.7-2.8.867-6.467 1.3-11 1.3Zm-13.1-27.7h22.8c.066-4.333-.9-7.3-2.9-8.9-2-1.6-4.6-2.4-7.8-2.4-3.334 0-6.067.9-8.2 2.7-2.067 1.733-3.367 4.6-3.9 8.6Zm43.639 26.7V64.1h10.8v9c1.066-3 2.766-5.433 5.1-7.3 2.4-1.933 5.166-2.9 8.3-2.9 2.133 0 3.6.2 4.4.6l-1.5 10.9c-.6-.4-1.9-.6-3.9-.6-1.667 0-3.467.367-5.4 1.1-1.934.733-3.6 2.033-5 3.9-1.334 1.8-2 4.333-2 7.6V110h-10.8Zm50.182 1c-2.134 0-4.367-.2-6.7-.6-2.267-.4-4.367-.9-6.3-1.5-1.867-.667-3.3-1.367-4.3-2.1l3.6-8.5c1.133.8 2.833 1.7 5.1 2.7 2.333 1 5.2 1.5 8.6 1.5 3 0 5.033-.433 6.1-1.3 1.066-.933 1.6-2 1.6-3.2 0-1.267-.467-2.233-1.4-2.9-.867-.733-2.134-1.4-3.8-2a321.24 321.24 0 0 1-5.9-2.2c-2.2-.933-4.3-2-6.3-3.2-2-1.267-3.634-2.8-4.9-4.6-1.2-1.867-1.8-4.133-1.8-6.8 0-4.333 1.666-7.633 5-9.9 3.333-2.333 7.733-3.5 13.2-3.5 2.8 0 5.5.3 8.1.9 2.666.6 4.666 1.367 6 2.3l-3.9 8.6c-.8-.8-2.134-1.533-4-2.2-1.8-.667-3.967-1-6.5-1-4.734 0-7.1 1.433-7.1 4.3 0 1.4.5 2.533 1.5 3.4 1.066.8 2.433 1.5 4.1 2.1 1.733.533 3.6 1.2 5.6 2 4.066 1.6 7.166 3.467 9.3 5.6 2.2 2.067 3.3 4.833 3.3 8.3 0 3.133-.834 5.733-2.5 7.8-1.667 2.067-3.9 3.6-6.7 4.6-2.734.933-5.734 1.4-9 1.4Zm50.138 0c-5.733 0-10.4-1.1-14-3.3-3.6-2.267-6.233-5.233-7.9-8.9-1.667-3.667-2.5-7.567-2.5-11.7 0-5 1-9.3 3-12.9 2.067-3.6 4.9-6.367 8.5-8.3 3.6-2 7.667-3 12.2-3 7.267 0 12.567 2.033 15.9 6.1 3.333 4 5 9.4 5 16.2 0 1.8-.1 3.667-.3 5.6h-33c.733 4.133 2.2 7.1 4.4 8.9 2.267 1.733 5.267 2.6 9 2.6 3.6 0 6.433-.333 8.5-1s3.767-1.333 5.1-2l3.3 7.7c-1.333.867-3.4 1.767-6.2 2.7-2.8.867-6.467 1.3-11 1.3Zm-13.1-27.7h22.8c.067-4.333-.9-7.3-2.9-8.9-2-1.6-4.6-2.4-7.8-2.4-3.333 0-6.067.9-8.2 2.7-2.067 1.733-3.367 4.6-3.9 8.6Z"></path><path fill="#E1FF01" d="m69.407 110-33.7-74h12.205c8.383 19.243 35.58 19.23 43.995 0h12.7l-33.7 74h-1.5Z"></path><path fill="#0248F7" d="M34.207 36 0 110h12.712c8.383-19.243 35.58-19.23 43.995 0h12.7l-33.7-74h-1.5Z"></path></svg>